<svg width="796" height="451" viewBox="0 0 796 451" fill="none" xmlns="http://www.w3.org/2000/svg">
<g id="Manneje bij stappenplan">
<g clip-path="url(#clip0)">
<path id="border-bottom" d="M742.364 415.259H30.3639V417.259H742.364V415.259Z" fill="#3F3D56"/>
<g id="Mannetje">
<path id="Vector" d="M224.24 322.14L203.24 342.14L186.24 324.14L212.24 311.14L224.24 322.14Z" fill="#A00025"/>
<path id="Vector_2" d="M197.176 326.091C197.176 326.091 222.617 324.429 219.643 331.856C216.669 339.283 222.973 366.582 222.973 366.582C222.973 366.582 232.426 415.609 202.536 396.1C172.646 376.591 179.15 363.038 179.15 363.038C179.15 363.038 170.427 349.85 172.286 345.209C174.145 340.567 188.915 322.741 191.746 324.973C192.475 325.617 193.359 326.059 194.312 326.255C195.265 326.451 196.252 326.395 197.176 326.091Z" fill="#2F2E41"/>
<path id="Vector_3" d="M188.24 243.14C188.24 243.14 300.24 234.14 309.24 257.14C318.24 280.14 300.24 297.14 300.24 297.14L227.24 333.14L203.957 312.312L217.24 300.14C217.24 300.14 142.24 314.14 140.24 303.14C138.24 292.14 148.24 234.14 188.24 243.14Z" fill="#2F2E41"/>
<path id="Vector_4" d="M318.24 263.14C318.24 263.14 338.24 319.14 318.24 316.14C298.24 313.14 300.24 268.14 300.24 268.14L318.24 263.14Z" fill="#A0616A"/>
<path id="Vector_5" d="M273.74 148.64C273.74 148.64 286.24 155.14 284.24 163.14C282.24 171.14 292.24 221.14 292.24 221.14L322.24 265.14L297.24 274.14C297.24 274.14 265.24 253.14 260.24 238.14C255.24 223.14 248.24 200.14 248.24 200.14L273.74 148.64Z" fill="#A00025"/>
<path id="Vector_6" d="M267.24 125.14C285.465 125.14 300.24 110.365 300.24 92.1399C300.24 73.9145 285.465 59.1399 267.24 59.1399C249.014 59.1399 234.24 73.9145 234.24 92.1399C234.24 110.365 249.014 125.14 267.24 125.14Z" fill="#A0616A"/>
<path id="Vector_7" d="M269.74 115.64C269.74 115.64 265.74 148.64 267.74 161.64C269.74 174.64 227.74 114.64 227.74 114.64C227.74 114.64 245.74 101.64 245.74 96.6399C245.74 91.6399 269.74 115.64 269.74 115.64Z" fill="#A0616A"/>
<path id="Vector_8" d="M307.17 79.4455C303.964 79.0635 300.722 79.086 297.522 79.5123C294.292 79.9575 291.348 81.6028 289.276 84.1206C286.994 87.1762 286.235 91.8175 282.659 93.1425C280.528 93.932 278.06 93.1807 275.928 93.9663C273.367 94.9095 272.067 97.74 271.386 100.382C270.705 103.024 270.311 105.885 268.568 107.984C266.825 110.083 263.072 110.788 261.528 108.539C261.813 106.125 261.689 103.681 261.161 101.308C260.885 100.124 260.317 99.0269 259.511 98.1166C258.704 97.2062 257.683 96.5111 256.541 96.0938C252.611 94.9557 248.953 98.37 246.307 101.49C243.66 104.611 240.117 108.09 236.144 107.114C231.974 106.089 230.552 100.96 230.093 96.6914C229.047 86.9667 229.202 76.6404 233.905 68.0645C240.712 55.6527 256.25 49.6291 270.271 51.5753C284.293 53.5214 296.669 62.2741 305.714 73.1632C307.184 74.9332 308.631 76.8779 308.947 79.1572" fill="#2F2E41"/>
<path id="Vector_9" d="M264.74 154.64L253.74 143.64L234.74 105.64L183.74 121.64C183.74 121.64 165.74 126.64 154.74 158.64C154.74 158.64 88.7398 243.64 99.7398 257.64C110.74 271.64 112.74 270.64 130.74 259.64C142.033 252.839 154.125 247.465 166.74 243.64L214.74 248.64L243.74 212.64C243.74 212.64 286.74 184.64 279.74 152.64L267.74 136.64L264.74 154.64Z" fill="#A00025"/>
<path id="Vector_10" d="M257.24 255.14L263.24 259.14C263.24 259.14 296.24 300.14 280.24 308.14C264.24 316.14 248.24 268.14 248.24 268.14L257.24 255.14Z" fill="#A0616A"/>
<path id="Vector_11" d="M211.893 122.75C213.085 122.839 214.245 123.176 215.299 123.74C216.353 124.303 217.278 125.08 218.015 126.022C221.983 131.07 227.896 142.942 219.24 163.14C212.218 179.315 206.532 196.037 202.24 213.14C202.24 213.14 207.24 212.14 207.24 216.14C207.24 220.14 203.24 218.14 207.24 220.14C211.24 222.14 210.24 219.14 211.24 222.14C212.284 225.273 211.147 225.134 213.524 226.279C215.913 227.598 217.995 229.409 219.634 231.591C220.084 232.189 220.626 232.712 221.24 233.14L258.24 252.14C258.24 252.14 263.24 272.14 248.24 272.14C248.24 272.14 156.24 246.14 158.24 226.14C160.195 206.587 164.062 119.169 211.893 122.75Z" fill="#A00025"/>
<path id="Vector_12" d="M192.24 375.14V401.14L164.24 399.14L170.24 373.14L192.24 375.14Z" fill="#A00025"/>
<path id="Vector_13" d="M172.24 387.14C172.24 387.14 195.24 376.14 195.24 384.14C195.24 392.14 211.24 415.14 211.24 415.14C211.24 415.14 238.24 457.14 203.24 450.14C168.24 443.14 169.24 428.14 169.24 428.14C169.24 428.14 156.24 419.14 156.24 414.14C156.24 409.14 163.326 387.101 166.783 388.12C167.699 388.447 168.685 388.529 169.642 388.357C170.599 388.185 171.495 387.765 172.24 387.14Z" fill="#2F2E41"/>
<path id="Vector_14" d="M144.24 245.14C144.24 245.14 215.24 229.14 212.24 255.14C209.24 281.14 206.24 296.14 206.24 296.14L194.24 381.14L166.24 378.14L164.24 362.14C164.24 362.14 158.24 356.14 161.24 352.14C164.24 348.14 156.24 309.14 156.24 309.14C156.24 309.14 108.24 319.14 104.24 290.14C100.24 261.14 110.24 252.14 110.24 252.14L144.24 245.14Z" fill="#2F2E41"/>
</g>
<g id="Optie3">
<path id="Vector_15" d="M597.629 338.269H418.502V340.282H597.629V338.269Z" fill="#3F3D56"/>
<path id="Vector_16" d="M597.629 352.358H418.502V354.37H597.629V352.358Z" fill="#3F3D56"/>
<path id="Vector_17" d="M597.629 366.446H418.502V368.459H597.629V366.446Z" fill="#3F3D56"/>
<path id="Vector_18" d="M456.559 315.415H414.59V281H456.559V315.415ZM416.269 313.736H454.881V282.679H416.269V313.736Z" fill="#3F3D56"/>
<path id="Vector_19" d="M382.241 306.558C386.659 306.558 390.241 302.976 390.241 298.558C390.241 294.14 386.659 290.558 382.241 290.558C377.823 290.558 374.241 294.14 374.241 298.558C374.241 302.976 377.823 306.558 382.241 306.558Z" fill="#A00025"/>
</g>
<path id="Animate3" d="M462.435 287.715H422.145V320.451H462.435V287.715Z" fill="#D0CDE1"/>
<g id="Optie1">
<path id="Vector_20" d="M597.629 57.2692H418.502V59.2818H597.629V57.2692Z" fill="#3F3D56"/>
<path id="Vector_21" d="M597.629 71.3578H418.502V73.3704H597.629V71.3578Z" fill="#3F3D56"/>
<path id="Vector_22" d="M597.629 85.4464H418.502V87.4591H597.629V85.4464Z" fill="#3F3D56"/>
<path id="Vector_23" d="M382.241 25.558C386.659 25.558 390.241 21.9763 390.241 17.558C390.241 13.1397 386.659 9.55798 382.241 9.55798C377.823 9.55798 374.241 13.1397 374.241 17.558C374.241 21.9763 377.823 25.558 382.241 25.558Z" fill="#A00025"/>
<path id="Vector_24" d="M456.559 34.4146H414.59V0H456.559V34.4146ZM416.269 32.7359H454.881V1.67876H416.269V32.7359Z" fill="#3F3D56"/>
</g>
<path id="Animate1" d="M462.435 6.71506H422.145V39.4509H462.435V6.71506Z" fill="#D0CDE1"/>
<g id="Optie2">
<path id="Vector_25" d="M795.629 218.269H616.502V220.282H795.629V218.269Z" fill="#3F3D56"/>
<path id="Vector_26" d="M795.629 232.358H616.502V234.37H795.629V232.358Z" fill="#3F3D56"/>
<path id="Vector_27" d="M795.629 246.446H616.502V248.459H795.629V246.446Z" fill="#3F3D56"/>
<path id="Vector_28" d="M580.241 186.558C584.659 186.558 588.241 182.976 588.241 178.558C588.241 174.14 584.659 170.558 580.241 170.558C575.823 170.558 572.241 174.14 572.241 178.558C572.241 182.976 575.823 186.558 580.241 186.558Z" fill="#A00025"/>
<path id="Vector_29" d="M654.559 195.415H612.59V161H654.559V195.415ZM614.269 193.736H652.881V162.679H614.269V193.736Z" fill="#3F3D56"/>
</g>
<path id="Animate2" d="M660.435 167.715H620.145V200.451H660.435V167.715Z" fill="#D0CDE1"/>
</g>
</g>
<defs>
<clipPath id="clip0">
<rect width="795.629" height="450.927" fill="white"/>
</clipPath>
</defs>
</svg>
